<svg width="53" height="53" viewBox="0 0 53 53" fill="none" xmlns="http://www.w3.org/2000/svg">
<circle cx="26.5" cy="26.5" r="26.5" fill="#202020"/>
<path d="M19.2 37C19.32 34.42 20.19 32.59 21.48 31.12C23.1 29.32 25.32 28.09 27.36 26.86C30.03 25.33 31.59 24.25 31.59 21.79C31.59 19.27 29.88 17.56 27.15 17.56C25.71 17.56 24.66 18.01 23.88 18.88C23.04 19.75 22.68 20.92 22.68 22.72H19.71C19.71 20.32 20.4 18.61 21.69 17.29C23.01 15.88 25.05 15.16 27.39 15.16C31.77 15.16 34.59 17.95 34.59 21.73C34.59 25.69 31.98 27.07 28.77 28.9C26.55 30.25 23.64 31.87 22.8 34.09L22.74 34.33H34.2V37H19.2Z" fill="#FCFCFC"/>
</svg>
