<svg width="53" height="53" viewBox="0 0 53 53" fill="none" xmlns="http://www.w3.org/2000/svg">
<circle cx="26.5" cy="26.5" r="26.5" fill="#202020"/>
<path d="M27.39 38.48C24.99 38.48 22.89 37.82 21.36 36.56C19.8 35.3 18.87 33.44 18.84 31.07H21.66C21.75 34.22 23.85 36.11 27.3 36.11C30.15 36.11 32.16 34.67 32.16 31.76C32.16 29.15 30.21 27.77 26.76 27.77H25.41V25.55H26.73C29.91 25.55 31.56 24.2 31.56 21.98C31.56 19.73 29.58 18.38 27.09 18.38C24.09 18.38 22.35 20.33 22.32 23H19.53C19.56 18.98 22.41 16.13 27.18 16.13C31.2 16.13 34.38 18.32 34.38 22.01C34.38 24.41 32.94 25.79 30.84 26.48V26.57C33.81 27.35 35.13 29.24 35.13 32C35.13 36.17 31.74 38.48 27.39 38.48Z" fill="#FCFCFC"/>
</svg>
