<?xml version="1.0" encoding="UTF-8"?>
<svg id="Layer_1" data-name="Layer 1" xmlns="http://www.w3.org/2000/svg" viewBox="0 0 18 18">
  <defs>
    <style>
      .cls-1 {
        fill: #575757;
        stroke-width: 0px;
      }
    </style>
  </defs>
  <path class="cls-1" d="m15.34,15.34h-2.67v-4.18c0-1-.02-2.28-1.39-2.28s-1.6,1.08-1.6,2.2v4.25h-2.67V6.75h2.56v1.17h.03c.36-.68,1.23-1.39,2.53-1.39,2.7,0,3.2,1.78,3.2,4.09v4.71h0ZM4,5.57c-.86,0-1.55-.69-1.55-1.55s.69-1.55,1.55-1.55,1.55.69,1.55,1.55-.69,1.55-1.55,1.55Zm1.34,9.76h-2.67V6.75h2.67v8.59ZM16.67,0H1.33C.59,0,0,.58,0,1.3v15.41c0,.72.59,1.3,1.33,1.3h15.34c.73,0,1.33-.58,1.33-1.3V1.3c0-.72-.6-1.3-1.33-1.3h0Z"/>
</svg>