<svg width="53" height="53" viewBox="0 0 53 53" fill="none" xmlns="http://www.w3.org/2000/svg">
<circle cx="26.5" cy="26.5" r="26.5" fill="#FCFCFC"/>
<path d="M18.2 38C18.32 35.42 19.19 33.59 20.48 32.12C22.1 30.32 24.32 29.09 26.36 27.86C29.03 26.33 30.59 25.25 30.59 22.79C30.59 20.27 28.88 18.56 26.15 18.56C24.71 18.56 23.66 19.01 22.88 19.88C22.04 20.75 21.68 21.92 21.68 23.72H18.71C18.71 21.32 19.4 19.61 20.69 18.29C22.01 16.88 24.05 16.16 26.39 16.16C30.77 16.16 33.59 18.95 33.59 22.73C33.59 26.69 30.98 28.07 27.77 29.9C25.55 31.25 22.64 32.87 21.8 35.09L21.74 35.33H33.2V38H18.2Z" fill="#202020"/>
</svg>
